Tron Legacy 

Source: BD-50 GB 1920x1080p (1.78:1, 2.35:1), German DTS-HD HR 7.1

Director: Joseph Kosinski

Cast: Amy Esterle, Beau Garrett, Brandon Jay McLaren, Bruce Boxleitner, Elizabeth Mathis, Garrett Hedlund, James Frain, 
Jeff Bridges, Michael Sheen, Olivia Wilde, Serinda Swan, Yaya DaCosta 

Plot:

Nach dem Verschwinden seines Vaters Kevin Flynn (J. Bridges) vor 20 Jahren begibt sich dessen Sohn Sam (G. Hedlund) auf 
die Suche nach ihm. Ebenso wie sein Vater findet sich auch Sam bald in einer bizarren Welt von Gladiatorenspielen wieder. 
Doch die Wiedersehensfreude ist nur kurz, denn nun scheint es für beide kein Entrinnen mehr aus diesem traumhaften und 
zugleich schrecklichen Cyber-Universum zugeben …
 
http://0.picswan.com/show.php/8832_Tron.Legacy1080pBlurayRip.xvid.German.AC3.DMXCrew.avi.jpg.html



General
Complete name                    : Tron.Legacy-1080p-Bluray-Rip.xvid.German.AC3.DMXCrew.avi
Format                           : AVI
Format/Info                      : Audio Video Interleave
File size                        : 1.36 GiB
Duration                         : 2h 5mn
Overall bit rate                 : 1 560 Kbps
Writing application              : VirtualDubMod 1.5.10.2 (build 2540/release)
Writing library                  : VirtualDubMod build 2540/release

Video
ID                               : 0
Format                           : MPEG-4 Visual
Format profile                   : Advanced Simple@L5
Format settings, BVOP            : 2
Format settings, QPel            : No
Format settings, GMC             : No warppoints
Format settings, Matrix          : Default (H.263)
Codec ID                         : XVID
Codec ID/Hint                    : XviD
Duration                         : 2h 5mn
Bit rate                         : 1 103 Kbps
Width                            : 656 pixels
Height                           : 368 pixels
Display aspect ratio             : 16:9
Frame rate                       : 23.976 fps
Color space                      : YUV
Chroma subsampling               : 4:2:0
Bit depth                        : 8 bits
Scan type                        : Progressive
Compression mode                 : Lossy
Bits/(Pixel*Frame)               : 0.191
Stream size                      : 987 MiB (71%)
Writing library                  : XviD 63

Audio
ID                               : 1
Format                           : AC-3
Format/Info                      : Audio Coding 3
Mode extension                   : CM (complete main)
Codec ID                         : 2000
Duration                         : 2h 5mn
Bit rate mode                    : Constant
Bit rate                         : 448 Kbps
Channel(s)                       : 6 channels
Channel positions                : Front: L C R, Side: L R, LFE
Sampling rate                    : 48.0 KHz
Bit depth                        : 16 bits
Compression mode                 : Lossy
Stream size                      : 401 MiB (29%)
Alignment                        : Split accross interleaves
Interleave, duration             : 42 ms (1.00 video frame)
Interleave, preload duration     : 500 ms